<?xml version="1.0" standalone="no"?>
<!DOCTYPE svg PUBLIC "-//W3C//DTD SVG 1.1//EN" "http://www.w3.org/Graphics/SVG/1.1/DTD/svg11.dtd" >
<svg xmlns="http://www.w3.org/2000/svg" xmlns:xlink="http://www.w3.org/1999/xlink" version="1.1">
<metadata>
Created by FontForge 20150824 at Thu Feb  4 15:51:16 2016
 By Everything Fonts
 (c) Copyright 1997 International Typeface Corporation. All rights reserved.
</metadata>
<defs>
<font id="ufonts_com_stone_sans_itc_tt_bold" horiz-adv-x="668" >
  <font-face 
    font-family="ufonts_com_stone_sans_itc_tt_bold"
    font-weight="700"
    font-stretch="normal"
    units-per-em="1000"
    panose-1="0 0 7 0 0 0 0 0 0 0"
    ascent="800"
    descent="-200"
    x-height="500"
    cap-height="700"
    bbox="-166 -259 1466 993"
    underline-thickness="20"
    underline-position="-163"
    unicode-range="U+0020-F002"
  />
<missing-glyph horiz-adv-x="500" 
d="M63 0v749h375v-749h-375zM125 63h250v624h-250v-624z" />
    <glyph glyph-name=".notdef" horiz-adv-x="500" 
d="M63 0v749h375v-749h-375zM125 63h250v624h-250v-624z" />
    <glyph glyph-name=".null" horiz-adv-x="0" 
 />
    <glyph glyph-name="glyph2" horiz-adv-x="266" 
 />
    <glyph glyph-name="space" unicode=" " horiz-adv-x="266" 
 />
    <glyph glyph-name="exclam" unicode="!" horiz-adv-x="459" 
d="M330 734q-12 -111 -45 -501h-119l-45 501h209zM318 84q0 -40 -26 -66t-66 -26t-67 25.5t-27 63.5q0 43 26.5 70t69.5 27q38 0 64 -27t26 -67z" />
    <glyph glyph-name="quotedbl" unicode="&#x22;" 
d="M475 641q0 -6 -7 -57l-27 -195q-5 -38 -26 -38q-17 0 -23 11q-3 6 -6 27l-27 195q-6 43 -6 57q0 25 17.5 41.5t43.5 16.5q28 0 44.5 -16t16.5 -42zM306 641q0 -6 -7 -57l-27 -195q-3 -21 -6 -27q-5 -11 -21 -11q-23 0 -28 38l-29 212q-5 32 -5 40q0 25 17.5 41.5
t44.5 16.5t44 -16t17 -42z" />
    <glyph glyph-name="numbersign" unicode="#" 
d="M591 516l-16 -109h-93l-16 -103h95l-15 -109h-95l-27 -195h-83l28 195h-124l-28 -195h-82l28 195h-96l15 109h96l14 103h-95l15 109h95l26 183h83l-26 -183h124l26 183h82l-25 -183h94zM398 407h-123l-15 -103h124z" />
    <glyph glyph-name="dollar" unicode="$" 
d="M569 217q0 -77 -57.5 -130t-149.5 -64v-77h-50v74q-125 2 -212 69l61 96q70 -56 151 -52v180q-30 18 -105 67q-96 64 -96 154q0 80 59 125q52 41 142 47v79h50v-78q103 -4 167 -51l-50 -76q-52 36 -117 34v-158q106 -63 142 -98q65 -63 65 -141zM312 488v116
q-42 -17 -42 -54q0 -28 42 -62zM404 212q0 30 -42 67v-135q42 18 42 68z" />
    <glyph glyph-name="percent" unicode="%" horiz-adv-x="1032" 
d="M996 212q0 -97 -58 -158t-149 -61q-90 0 -148 61t-58 156q0 96 57.5 156t150.5 60q90 0 147.5 -60t57.5 -154zM739 699l-364 -699h-99l364 699h99zM432 492q0 -96 -57.5 -158t-147.5 -62q-91 0 -149.5 61.5t-58.5 156.5q0 97 58 156t152 59q89 0 146 -59.5t57 -153.5z
M841 211q0 127 -53 127q-50 0 -50 -126t51 -126q52 0 52 125zM277 491q0 127 -52 127q-51 0 -51 -126t52 -126q51 0 51 125z" />
    <glyph glyph-name="ampersand" unicode="&#x26;" horiz-adv-x="821" 
d="M795 516l-42 -87h-79q16 -44 16 -94q0 -81 -50 -150l128 -108l-121 -89l-93 84q-94 -84 -222 -84q-116 0 -190.5 64t-74.5 164q0 129 119 193q-70 73 -70 143t56 115t143 45q74 0 157 -46l-51 -107q-45 28 -77 28q-48 0 -48 -41q0 -21 16.5 -43.5t64.5 -68.5l170 -161
q14 29 14 60q0 55 -32 96h-87l43 87h310zM458 154l-180 170q-50 -40 -50 -91q0 -50 37 -82t95 -32q62 0 98 35z" />
    <glyph glyph-name="quotesingle" unicode="'" horiz-adv-x="325" 
d="M232 642q0 -6 -7 -56l-26 -192q-3 -21 -6 -27q-5 -11 -21 -11t-21 11q-3 5 -6 27l-32 229q-2 12 -2 19q0 25 17 41t43 16t43.5 -16t17.5 -41z" />
    <glyph glyph-name="parenleft" unicode="(" horiz-adv-x="497" 
d="M432 -134l-86 -65q-129 102 -189 202q-73 119 -73 267t73 268q61 102 189 202l86 -64q-84 -79 -130 -185.5t-46 -220.5q0 -113 46 -219t130 -185z" />
    <glyph glyph-name="parenright" unicode=")" horiz-adv-x="497" 
d="M404 270q0 -150 -72 -268q-60 -99 -190 -201l-85 65q84 79 130 185t46 219q0 114 -46 220t-130 186l85 64q130 -103 190 -202q72 -118 72 -268z" />
    <glyph glyph-name="asterisk" unicode="*" 
d="M518 520l-134 -22l95 -103l-86 -60l-64 122l-65 -122l-84 60l94 103l-135 22l31 105l125 -59l-21 133h110l-20 -133l125 59z" />
    <glyph glyph-name="plus" unicode="+" 
d="M582 195h-200v-199h-106v199h-200v106h200v201h106v-201h200v-106z" />
    <glyph glyph-name="comma" unicode="," horiz-adv-x="351" 
d="M264 94q0 -36 -50 -101l-147 -192l-68 42l99 174q0 8 -11.5 32t-11.5 46q0 35 27 59.5t65 24.5q48 0 75 -29q22 -23 22 -56z" />
    <glyph glyph-name="hyphen" unicode="-" horiz-adv-x="363" 
d="M323 201h-288v111h288v-111z" />
    <glyph glyph-name="hyphen" unicode="&#x2010;" horiz-adv-x="363" 
d="M323 201h-288v111h288v-111z" />
    <glyph glyph-name="period" unicode="." horiz-adv-x="325" 
d="M253 84q0 -40 -26 -66t-66 -26t-67 25.5t-27 63.5q0 43 26.5 70t69.5 27q38 0 64 -27t26 -67z" />
    <glyph glyph-name="slash" unicode="/" horiz-adv-x="573" 
d="M544 734l-409 -842h-114l408 842h115z" />
    <glyph glyph-name="zero" unicode="0" 
d="M633 356q0 -161 -85 -264.5t-218 -103.5t-218.5 103t-85.5 261q0 162 84.5 261t223.5 99q131 0 215 -99.5t84 -256.5zM428 353q0 231 -100 231q-97 0 -97 -229q0 -230 98 -230q99 0 99 228z" />
    <glyph glyph-name="one" unicode="1" 
d="M460 0h-209v576l-137 -56l-24 104l191 76h179v-700z" />
    <glyph glyph-name="two" unicode="2" 
d="M604 0h-560v97q195 173 262.5 260.5t67.5 149.5q0 33 -22 53.5t-57 20.5q-59 0 -160 -67l-67 101q118 97 271 97q116 0 186.5 -50.5t70.5 -132.5q0 -116 -131 -246q-35 -35 -151 -140h290v-143z" />
    <glyph glyph-name="three" unicode="3" 
d="M581 199q0 -95 -82 -153t-215 -58t-211 30l44 108q67 -32 129 -32q50 0 81.5 29.5t31.5 75.5q0 81 -96 107q-47 13 -125 14v92q71 1 113 17q73 27 73 91q0 82 -88 82q-58 0 -113 -29l-47 93q99 46 217 46t183 -41.5t65 -117.5q0 -58 -39.5 -103.5t-109.5 -68.5
q89 -11 139 -59t50 -123z" />
    <glyph glyph-name="four" unicode="4" 
d="M636 156h-102v-156h-182v156h-330v91l358 453h154v-428h102v-116zM352 272v246q-23 -39 -177 -246h177z" />
    <glyph glyph-name="five" unicode="5" 
d="M580 700l-27 -131h-220l-24 -102q115 -19 174 -63q91 -67 91 -177q0 -104 -85 -171.5t-217 -67.5q-111 0 -236 70l65 123q88 -62 152 -62q43 0 71 26.5t28 67.5q0 66 -80 103q-61 28 -130 28h-18l91 356h365z" />
    <glyph glyph-name="six" unicode="6" 
d="M629 231q0 -101 -88.5 -172t-213.5 -71q-127 0 -209 69q-89 73 -89 198q0 193 172 322q150 112 362 135v-107q-82 -5 -171 -63.5t-111 -121.5q48 11 94 11q110 0 182 -56.5t72 -143.5zM421 214q0 58 -24.5 91t-67.5 33q-41 0 -65 -33.5t-24 -90.5q0 -59 25 -96.5
t65 -37.5t65.5 37.5t25.5 96.5z" />
    <glyph glyph-name="seven" unicode="7" 
d="M617 625l-340 -634l-186 46l306 532h-318v131h538v-75z" />
    <glyph glyph-name="eight" unicode="8" 
d="M626 188q0 -88 -84 -144t-218 -56q-131 0 -212 56t-81 146q0 57 31 100t107 92q-56 35 -78.5 67.5t-22.5 81.5q0 95 89 143q71 38 175 38q109 0 181.5 -46t72.5 -116q0 -93 -122 -168q162 -70 162 -194zM399 543q0 35 -20.5 58.5t-51.5 23.5t-50.5 -22t-19.5 -57
q0 -61 72 -102q70 35 70 99zM412 184q0 86 -101 130q-68 -41 -68 -121q0 -49 23.5 -81t60.5 -32q35 0 60 30.5t25 73.5z" />
    <glyph glyph-name="nine" unicode="9" 
d="M630 446q0 -193 -175 -324q-152 -114 -358 -134v108q85 7 171.5 63t109.5 120q-47 -11 -94 -11q-110 0 -182 57t-72 144q0 101 79 170q85 73 224 73q125 0 208 -69q89 -74 89 -197zM420 485q0 60 -25.5 97.5t-66.5 37.5q-39 0 -64 -38t-25 -97q0 -57 24 -90.5t66 -33.5
t66.5 34t24.5 90z" />
    <glyph glyph-name="colon" unicode=":" horiz-adv-x="325" 
d="M253 408q0 -40 -26 -66t-66 -26t-67 25.5t-27 63.5q0 43 26.5 70t69.5 27q38 0 64 -27t26 -67zM253 84q0 -40 -26 -66t-66 -26t-67 25.5t-27 63.5q0 43 26.5 70t69.5 27q38 0 64 -27t26 -67z" />
    <glyph glyph-name="semicolon" unicode=";" horiz-adv-x="325" 
d="M253 408q0 -40 -26 -66t-66 -26t-67 25.5t-27 63.5q0 43 26.5 70t69.5 27q38 0 64 -27t26 -67zM253 94q0 -36 -50 -101l-147 -192l-68 42l99 174q0 8 -11.5 32t-11.5 46q0 35 27 59.5t65 24.5q48 0 75 -29q22 -23 22 -56z" />
    <glyph glyph-name="less" unicode="&#x3c;" horiz-adv-x="606" 
d="M529 -47l-452 239v113l452 238v-113l-340 -182l340 -179v-116z" />
    <glyph glyph-name="equal" unicode="=" 
d="M582 292h-506v106h506v-106zM582 98h-506v105h506v-105z" />
    <glyph glyph-name="greater" unicode="&#x3e;" horiz-adv-x="606" 
d="M529 191l-452 -238v113l340 182l-340 179v116l452 -239v-113z" />
    <glyph glyph-name="question" unicode="?" horiz-adv-x="554" 
d="M512 581q0 -60 -41 -115q-8 -12 -55 -66.5t-65.5 -88.5t-24.5 -78h-151q-3 17 -3 25q0 51 80 185q45 75 45 112q0 67 -70 67q-53 0 -110 -64l-69 80q54 53 105.5 74.5t126.5 21.5q101 0 165 -39q67 -42 67 -114zM339 84q0 -40 -26 -66t-66 -26t-67 25.5t-27 63.5
q0 43 26.5 70t69.5 27q38 0 64 -27t26 -67z" />
    <glyph glyph-name="at" unicode="@" horiz-adv-x="781" 
d="M740 404q0 -95 -53 -168.5t-122 -73.5q-27 0 -51.5 15t-34.5 36q-45 -61 -133 -61q-62 0 -105 48t-43 116q0 82 56 146t128 64q64 0 96 -32l4 22h112l-31 -188l-8 -49q0 -19 16 -19q22 0 44 48t22 97q0 92 -63 153t-162 61q-118 0 -193.5 -81t-75.5 -200q0 -118 79 -189
q76 -68 195 -68q70 0 162 22l26 -100q-89 -21 -211 -21q-155 0 -260 100.5t-105 256.5q0 158 109 267.5t267 109.5q144 0 239.5 -88.5t95.5 -223.5zM452 347q0 21 -15 36.5t-37 15.5q-26 0 -46.5 -23.5t-20.5 -54.5q0 -21 14 -35t35 -14q27 0 48.5 23t21.5 52z" />
    <glyph glyph-name="A" unicode="A" horiz-adv-x="735" 
d="M731 0h-223l-55 168h-217l-68 -168h-164l285 700h177zM420 278l-70 219l-79 -219h149z" />
    <glyph glyph-name="B" unicode="B" horiz-adv-x="705" 
d="M666 205q0 -69 -48 -122q-44 -50 -113 -68q-55 -15 -183 -15h-242v700h249q90 0 127.5 -4.5t72.5 -20.5q92 -42 92 -138q0 -55 -32 -91t-106 -65q46 -5 89 -26q94 -45 94 -150zM432 510q0 52 -43 69q-18 7 -66 7h-33v-163h27q56 0 79 16q36 25 36 71zM452 219
q0 63 -49 83q-20 8 -73 8h-40v-197h30q69 0 97 24q35 30 35 82z" />
    <glyph glyph-name="C" unicode="C" horiz-adv-x="671" 
d="M641 18q-85 -30 -175 -30q-184 0 -300 99.5t-116 262.5q0 157 114 259.5t290 102.5q93 0 187 -35l-52 -126q-56 15 -99 15q-101 0 -161 -59t-60 -158q0 -93 55 -151q60 -64 170 -64q52 0 108 16z" />
    <glyph glyph-name="D" unicode="D" horiz-adv-x="790" 
d="M740 368q0 -201 -152 -302q-100 -66 -275 -66h-233v700h221q113 0 162 -9q131 -24 204 -109.5t73 -213.5zM520 364q0 125 -76 175q-42 28 -118 28h-36v-434h32q95 0 140 46q58 60 58 185z" />
    <glyph glyph-name="E" unicode="E" horiz-adv-x="590" 
d="M548 0h-468v700h426v-133h-216v-134h211v-134h-211v-166h258v-133z" />
    <glyph glyph-name="F" unicode="F" horiz-adv-x="533" 
d="M506 567h-216v-169h211v-134h-211v-264h-210v700h426v-133z" />
    <glyph glyph-name="G" unicode="G" horiz-adv-x="747" 
d="M690 23q-119 -35 -219 -35q-183 0 -302 104.5t-119 265.5q0 156 115 255t296 99q93 0 179 -35l-53 -124q-46 14 -95 14q-101 0 -162 -60t-61 -159q0 -91 52 -152.5t128 -61.5q15 0 32 4v182h209v-297z" />
    <glyph glyph-name="H" unicode="H" horiz-adv-x="803" 
d="M723 0h-209v320h-224v-320h-210v700h210v-246h224v246h209v-700z" />
    <glyph glyph-name="I" unicode="I" horiz-adv-x="370" 
d="M290 0h-210v700h210v-700z" />
    <glyph glyph-name="J" unicode="J" horiz-adv-x="369" 
d="M289 142q0 -114 -21 -170q-28 -74 -97.5 -118t-158.5 -43v122q47 19 57 50.5t10 154.5v562h210v-558z" />
    <glyph glyph-name="K" unicode="K" horiz-adv-x="724" 
d="M715 27l-218 -38l-207 350v-339h-210v700h210v-289l178 298l182 -36l-182 -279z" />
    <glyph glyph-name="L" unicode="L" horiz-adv-x="552" 
d="M547 0h-467v700h210v-567h257v-133z" />
    <glyph glyph-name="M" unicode="M" horiz-adv-x="933" 
d="M853 0h-200v353q0 39 4 139q-16 -62 -43 -139l-122 -353h-89l-125 353q-20 57 -43 140q4 -73 4 -140v-353h-165v700h249l147 -429l142 429h241v-700z" />
    <glyph glyph-name="N" unicode="N" horiz-adv-x="775" 
d="M695 0h-133l-317 396v-396h-165v700h146l304 -389v389h165v-700z" />
    <glyph glyph-name="O" unicode="O" horiz-adv-x="795" 
d="M745 353q0 -157 -94 -259q-97 -106 -253 -106t-253 105q-95 102 -95 258q0 159 100 260t258 101q144 0 240.5 -102.5t96.5 -256.5zM525 347q0 219 -129 219q-127 0 -127 -216t128 -216t128 213z" />
    <glyph glyph-name="P" unicode="P" horiz-adv-x="684" 
d="M656 498q0 -52 -23.5 -101t-63.5 -79q-89 -67 -218 -67h-18v124q54 5 85.5 34t31.5 73q0 60 -53 77q-21 7 -81 7h-27v-566h-209v700h252q89 0 119 -3q69 -7 113 -34q92 -56 92 -165z" />
    <glyph glyph-name="Q" unicode="Q" horiz-adv-x="806" 
d="M817 -45l-73 -121l-308 154h-27q-169 0 -264 98t-95 267q0 157 99.5 258t251.5 101q155 0 251 -106q93 -102 93 -258q0 -96 -35 -168t-112 -137zM525 347q0 219 -129 219q-127 0 -127 -216t128 -216t128 213z" />
    <glyph glyph-name="R" unicode="R" horiz-adv-x="705" 
d="M681 11l-220 -23l-117 286h-54v-274h-210v700h272q77 0 111 -4q63 -9 103 -36q78 -53 78 -160q0 -127 -129 -193zM447 487q0 54 -33 75q-24 15 -85 15h-39v-190h37q66 0 93 25.5t27 74.5z" />
    <glyph glyph-name="S" unicode="S" horiz-adv-x="574" 
d="M521 195q0 -93 -74.5 -150t-195.5 -57q-124 0 -221 65l64 116q59 -50 127 -50q37 0 63 19t26 49q0 28 -25 59q-17 20 -77 74q-37 32 -95 85q-52 57 -52 124q0 83 68 133t179 50q97 0 185 -47l-56 -110q-55 26 -95 26q-66 0 -66 -44q0 -17 13.5 -34t59.5 -56
q54 -46 105 -100q67 -71 67 -152z" />
    <glyph glyph-name="T" unicode="T" horiz-adv-x="623" 
d="M619 567h-204v-567h-210v567h-201v133h615v-133z" />
    <glyph glyph-name="U" unicode="U" horiz-adv-x="746" 
d="M679 315q0 -113 -21 -166q-63 -161 -287 -161q-182 0 -259 111q-31 44 -39 108q-4 31 -4 116v377h209v-342q0 -129 16 -167q24 -57 87 -57q83 0 106 83q11 39 11 146v337h181v-385z" />
    <glyph glyph-name="V" unicode="V" horiz-adv-x="721" 
d="M719 690l-270 -690h-198l-249 685l220 25l153 -497l164 497z" />
    <glyph glyph-name="W" unicode="W" horiz-adv-x="1055" 
d="M1051 690l-191 -690h-202l-134 431l-144 -431h-201l-175 690l214 20l96 -497l159 487h155l141 -487l107 497z" />
    <glyph glyph-name="X" unicode="X" horiz-adv-x="675" 
d="M671 14l-219 -24l-125 238l-138 -238l-185 24l228 363l-177 312l215 20l82 -181l100 181l188 -11l-198 -304z" />
    <glyph glyph-name="Y" unicode="Y" horiz-adv-x="638" 
d="M634 692l-217 -420v-272h-210v272l-203 410l224 28l108 -277l128 277z" />
    <glyph glyph-name="Z" unicode="Z" horiz-adv-x="621" 
d="M609 0h-596v71l320 496h-246v133h505v-70l-312 -497h329v-133z" />
    <glyph glyph-name="bracketleft" unicode="[" horiz-adv-x="497" 
d="M434 -191h-295v925h295v-87h-134v-752h134v-86z" />
    <glyph glyph-name="backslash" unicode="\" horiz-adv-x="573" 
d="M544 -108h-114l-409 842h114z" />
    <glyph glyph-name="bracketright" unicode="]" horiz-adv-x="496" 
d="M351 -191h-295v86h134v752h-134v87h295v-925z" />
    <glyph glyph-name="asciicircum" unicode="^" horiz-adv-x="647" 
d="M577 358h-113l-139 249l-139 -249h-116l199 342h113z" />
    <glyph glyph-name="underscore" unicode="_" horiz-adv-x="532" 
d="M524 -167h-524v116h524v-116z" />
    <glyph glyph-name="grave" unicode="`" horiz-adv-x="532" 
d="M337 602l-37 -34l-318 93l86 101z" />
    <glyph glyph-name="a" unicode="a" horiz-adv-x="612" 
d="M558 0h-210q-7 25 -7 55q-71 -67 -156 -67q-60 0 -105 45t-45 107q0 82 71 138q51 40 161 63l81 17q-28 50 -89 50q-60 0 -124 -54l-56 89q106 69 229 69q138 0 197 -77q35 -46 35 -162v-116q0 -100 18 -157zM347 212v45q-12 -3 -42 -11q-89 -24 -89 -80q0 -23 16 -40.5
t36 -17.5t39.5 12t28.5 32q11 25 11 60z" />
    <glyph glyph-name="b" unicode="b" horiz-adv-x="679" 
d="M645 261q0 -115 -68 -194t-168 -79q-43 0 -74 17t-71 62v-67h-194v734h194v-301q39 44 75.5 61.5t87.5 17.5q97 0 157.5 -69.5t60.5 -181.5zM435 255q0 71 -22.5 112t-61.5 41q-41 0 -64.5 -42t-23.5 -115t22.5 -116.5t59.5 -43.5q49 0 73 62q17 44 17 102z" />
    <glyph glyph-name="c" unicode="c" horiz-adv-x="521" 
d="M505 29q-85 -41 -185 -41q-120 0 -200 67q-86 71 -86 189q0 115 86.5 191.5t216.5 76.5q89 0 168 -42l-51 -102q-48 17 -85 17q-58 0 -91.5 -36t-33.5 -97q0 -58 36 -97t90 -39q29 0 83 19z" />
    <glyph glyph-name="d" unicode="d" horiz-adv-x="678" 
d="M608 0h-194v67q-42 -45 -77 -62t-83 -17q-105 0 -166 81q-55 73 -55 182q0 113 64.5 187t162.5 74t154 -79v301h194v-734zM414 252q0 156 -89 156q-38 0 -60 -41.5t-22 -114.5q0 -72 24 -117t63 -45q38 0 61 44t23 118z" />
    <glyph glyph-name="e" unicode="e" horiz-adv-x="592" 
d="M550 270q0 -28 -1 -44h-307q1 -58 34.5 -88.5t89.5 -30.5q58 0 130 35l53 -100q-115 -54 -224 -54q-117 0 -195 66q-97 82 -97 206q0 118 88 190q76 62 192 62q133 0 193 -88q44 -64 44 -154zM381 310v19q0 100 -69 100q-70 0 -70 -119h139z" />
    <glyph glyph-name="f" unicode="f" horiz-adv-x="389" 
d="M440 710l-26 -97q-35 13 -64 13q-67 0 -67 -73v-53h120v-93h-120v-407h-199v407h-81v93h81v47q0 89 62 139q59 48 157 48q68 0 137 -24z" />
    <glyph glyph-name="g" unicode="g" 
d="M600 140q0 -125 -13 -178q-52 -212 -287 -212q-108 0 -226 44l29 117q77 -42 154 -42q89 0 126 60q18 29 18 93v45q-41 -44 -74.5 -61.5t-79.5 -17.5q-103 0 -162 82q-52 74 -52 181q0 112 63 186.5t158 74.5q94 0 147 -79v67h199v-360zM401 252q0 156 -82 156
q-76 0 -76 -156q0 -72 22.5 -117t58.5 -45q35 0 56 44t21 118z" />
    <glyph glyph-name="h" unicode="h" horiz-adv-x="683" 
d="M613 0h-199v296q0 89 -66 89q-79 0 -79 -105v-280h-199v734h199v-301q68 79 166 79q59 0 103 -26q48 -28 65 -80q10 -34 10 -116v-290z" />
    <glyph glyph-name="i" unicode="i" horiz-adv-x="339" 
d="M274 647q0 -45 -29.5 -75t-73.5 -30t-75 29.5t-31 71.5q0 49 29.5 78.5t77.5 29.5q44 0 73 -30t29 -74zM269 0h-199v500h199v-500z" />
    <glyph glyph-name="j" unicode="j" horiz-adv-x="339" 
d="M273 647q0 -45 -29.5 -75t-73.5 -30t-75 29.5t-31 71.5q0 49 29.5 78.5t77.5 29.5q44 0 73 -30t29 -74zM268 0q0 -151 -58 -202q-54 -48 -209 -48v58q50 9 62 47q6 19 6 146v499h199v-500z" />
    <glyph glyph-name="k" unicode="k" horiz-adv-x="630" 
d="M622 43l-188 -53l-165 264v-254h-199v734h199v-424h14l147 198l153 -50l-142 -174z" />
    <glyph glyph-name="l" unicode="l" horiz-adv-x="339" 
d="M269 0h-199v734h199v-734z" />
    <glyph glyph-name="m" unicode="m" horiz-adv-x="1003" 
d="M933 0h-199v292q0 46 -9 63q-16 30 -54 30q-48 0 -64 -44q-7 -19 -7 -57v-284h-199v281q0 57 -8 73q-15 30 -53 30q-50 0 -65 -42q-6 -17 -6 -59v-283h-199v500h199v-73q61 85 173 85q105 0 143 -85q62 85 171 85q110 0 154 -77q23 -40 23 -141v-294z" />
    <glyph glyph-name="n" unicode="n" horiz-adv-x="683" 
d="M613 0h-199v296q0 89 -66 89q-79 0 -79 -104v-281h-199v500h199v-73q67 85 168 85q116 0 157 -85q19 -39 19 -136v-291z" />
    <glyph glyph-name="o" unicode="o" horiz-adv-x="642" 
d="M608 255q0 -116 -81 -191.5t-206 -75.5q-126 0 -206.5 75t-80.5 191q0 113 81.5 185.5t208.5 72.5q122 0 203 -73.5t81 -183.5zM404 251q0 172 -84 172q-38 0 -60.5 -46.5t-22.5 -124.5q0 -80 22.5 -127.5t60.5 -47.5q40 0 62 46t22 128z" />
    <glyph glyph-name="p" unicode="p" horiz-adv-x="679" 
d="M645 261q0 -115 -68 -194t-168 -79q-43 0 -75 17.5t-70 61.5v-317h-194v750h194v-67q39 44 75.5 61.5t87.5 17.5q97 0 157.5 -69.5t60.5 -181.5zM435 255q0 71 -22.5 112t-61.5 41q-41 0 -64.5 -42t-23.5 -115t22.5 -116.5t59.5 -43.5q49 0 73 62q17 44 17 102z" />
    <glyph glyph-name="q" unicode="q" horiz-adv-x="688" 
d="M607 -250h-195v317q-43 -45 -77.5 -62t-81.5 -17q-105 0 -166 81q-56 74 -56 182q0 112 65 186.5t163 74.5q97 0 153 -79v67h195v-750zM412 252q0 156 -88 156q-38 0 -60 -41.5t-22 -114.5q0 -72 24 -117t63 -45q38 0 60.5 44t22.5 118z" />
    <glyph glyph-name="r" unicode="r" horiz-adv-x="489" 
d="M489 472l-55 -148q-27 13 -61 13q-72 0 -95 -67q-9 -25 -9 -96v-174h-199v500h199v-116l15 32q45 96 106 96q44 0 99 -40z" />
    <glyph glyph-name="s" unicode="s" horiz-adv-x="452" 
d="M420 145q0 -70 -61 -113.5t-155 -43.5q-102 0 -178 49l42 101q66 -47 106 -47q21 0 36 12t15 30q0 17 -18 35q-13 12 -68 53q-46 34 -65 59q-28 37 -28 84q0 68 53.5 108t140.5 40t162 -35l-42 -90q-37 21 -73 21q-19 0 -32 -10t-13 -26q0 -18 19 -37q14 -14 66.5 -53
t72.5 -68t20 -69z" />
    <glyph glyph-name="t" unicode="t" horiz-adv-x="447" 
d="M433 19q-88 -31 -175 -31q-135 0 -164 92q-9 28 -9 93v236h-70v91h70v121l199 29v-150h132v-91h-132v-176q0 -137 69 -137q27 0 56 13z" />
    <glyph glyph-name="u" unicode="u" horiz-adv-x="678" 
d="M608 0h-200v73q-67 -85 -167 -85q-115 0 -156 82q-20 40 -20 139v291h199v-296q0 -88 65 -88q79 0 79 102v282h200v-500z" />
    <glyph glyph-name="v" unicode="v" horiz-adv-x="556" 
d="M552 486l-215 -486h-145l-188 486l201 24l88 -290l102 290z" />
    <glyph glyph-name="w" unicode="w" horiz-adv-x="875" 
d="M868 491l-206 -491h-139l-102 276l-100 -276h-138l-179 482l196 28l83 -296l104 286h130l98 -286l95 296z" />
    <glyph glyph-name="x" unicode="x" horiz-adv-x="579" 
d="M574 14l-212 -24l-88 150l-110 -150l-159 24l182 241l-155 231l208 24l72 -126l84 126l152 -24l-160 -209z" />
    <glyph glyph-name="y" unicode="y" horiz-adv-x="554" 
d="M553 486l-233 -531q-51 -117 -92 -154q-32 -29 -71.5 -40t-112.5 -11h-47v124h32q71 0 111 51q27 35 51 117l-179 441l198 27l87 -296l102 296z" />
    <glyph glyph-name="z" unicode="z" horiz-adv-x="508" 
d="M494 0h-480v53l239 338h-189v109h416v-62l-218 -324h232v-114z" />
    <glyph glyph-name="braceleft" unicode="{" horiz-adv-x="459" 
d="M383 -195q-145 0 -192 42q-51 45 -51 185v70q0 65 -9 88q-15 40 -67 51v64q54 11 69 54q7 22 7 91v84q0 126 62 170q50 37 181 37v-76q-48 -7 -66 -29.5t-18 -73.5v-45q0 -104 1 -82q-2 -47 -11 -81q-13 -48 -57 -82q40 -32 57 -76q10 -26 10 -168v-44q0 -51 17 -73
t67 -31v-75z" />
    <glyph glyph-name="bar" unicode="|" horiz-adv-x="370" 
d="M238 -175h-106v874h106v-874z" />
    <glyph glyph-name="braceright" unicode="}" horiz-adv-x="458" 
d="M387 241q-54 -11 -69 -54q-7 -22 -7 -91v-84q0 -126 -61 -170q-51 -37 -182 -37v76q48 7 66 29.5t18 73.5v45q0 104 -1 82q2 47 11 81q13 48 57 82q-40 32 -57 76q-10 26 -10 168v44q0 51 -17 73t-67 31v75q145 0 192 -42q51 -45 51 -185v-70q0 -65 9 -88q15 -40 67 -51
v-64z" />
    <glyph glyph-name="asciitilde" unicode="~" horiz-adv-x="684" 
d="M614 613q-12 -80 -51 -130q-46 -59 -122 -59q-28 0 -119 37l-40 18t-38 9q-27 0 -47 -19t-27 -45h-100q16 65 30 94q44 91 138 91q39 0 106 -33q63 -31 96 -31q32 0 49 18q13 13 27 50h98z" />
    <glyph glyph-name="nonbreakingspace" unicode="&#xa0;" horiz-adv-x="266" 
 />
    <glyph glyph-name="exclamdown" unicode="&#xa1;" horiz-adv-x="459" 
d="M318 415q0 -40 -26 -66.5t-66 -26.5t-67 26t-27 64q0 42 26.5 69t69.5 27q38 0 64 -26.5t26 -66.5zM330 -236h-209q6 75 45 501h119q5 -53 45 -501z" />
    <glyph glyph-name="cent" unicode="&#xa2;" 
d="M566 122q-65 -31 -145 -31q-19 0 -29 1l-21 -98h-81l22 108q-96 23 -156 88q-64 70 -64 166q0 115 90 189q84 69 201 69q16 0 29 -1l18 84h84l-19 -92q28 -6 71 -24l-46 -106q-28 13 -48 15l-54 -267q23 -5 34 -5q32 0 68 16zM388 492q-101 -33 -101 -131q0 -66 53 -110z
" />
    <glyph glyph-name="sterling" unicode="&#xa3;" 
d="M638 39q-75 -51 -178 -51q-43 0 -99 6q-122 13 -195 13l-141 -6v96q50 14 73 43.5t34 93.5l16 94h-102v95h109l12 68q20 111 98.5 165.5t178.5 54.5q107 0 191 -72l-66 -68q-40 27 -84 27q-97 0 -111 -110l-8 -65h145v-95h-152l-5 -46q-3 -31 -10 -57q-15 -55 -52 -82
q35 -5 107 -13q59 -6 88 -6q55 0 93 19z" />
    <glyph glyph-name="currency" unicode="&#xa4;" horiz-adv-x="760" 
d="M705 114l-81 -83l-106 105q-70 -44 -137 -44q-70 0 -149 44l-105 -105l-82 83l105 105q-39 66 -39 138q0 63 42 139l-108 108l82 82l110 -109q77 40 138 40q58 0 135 -40l110 108l81 -83l-106 -104q44 -74 44 -142q0 -61 -40 -137zM500 357q0 53 -36.5 89.5t-89.5 36.5
q-50 0 -86.5 -37t-36.5 -88q0 -52 36.5 -89t87.5 -37q52 0 88.5 36.5t36.5 88.5z" />
    <glyph glyph-name="yen" unicode="&#xa5;" 
d="M653 695l-143 -270h107v-63h-140l-45 -81v-24h185v-60h-186v-197h-211v197h-186v60h185v24l-44 81h-141v63h109l-133 259l205 27l129 -305l153 305z" />
    <glyph glyph-name="brokenbar" unicode="&#xa6;" horiz-adv-x="370" 
d="M238 320h-106v379h106v-379zM238 -175h-106v336h106v-336z" />
    <glyph glyph-name="section" unicode="&#xa7;" 
d="M604 268q0 -108 -139 -153q46 -41 46 -100q0 -77 -68 -123q-60 -40 -140 -40q-123 0 -206 69l38 102q62 -48 123 -48q50 0 50 39q0 19 -14 32.5t-79 58.5q-85 59 -105 78q-55 53 -55 113q0 69 65 115q12 9 61 39q-58 47 -58 105q0 70 56.5 113t149.5 43q107 0 191 -63
l-64 -88q-52 41 -87 41q-20 0 -33 -12t-13 -31q0 -22 35 -49l52 -34q44 -28 121 -83q73 -61 73 -124zM431 239q0 34 -37 63q-39 25 -116 77q-49 -16 -49 -60q0 -30 31.5 -60t118.5 -84q52 23 52 64z" />
    <glyph glyph-name="dieresis" unicode="&#xa8;" horiz-adv-x="532" 
d="M467 659q0 -33 -22.5 -55.5t-54.5 -22.5q-33 0 -55.5 22.5t-22.5 54.5q0 33 22.5 56t56.5 23q31 0 53.5 -23t22.5 -55zM213 659q0 -33 -22.5 -55.5t-55.5 -22.5q-32 0 -55 22.5t-23 55.5t22.5 56t56.5 23q32 0 54.5 -23.5t22.5 -55.5z" />
    <glyph glyph-name="copyright" unicode="&#xa9;" horiz-adv-x="784" 
d="M751 344q0 -151 -105 -257t-254 -106t-254.5 106.5t-105.5 256.5q0 152 106 257.5t260 105.5q145 0 249 -107t104 -256zM669 343q0 122 -81 207t-198 85q-113 0 -194.5 -85.5t-81.5 -204.5q0 -120 82 -206t197 -86q114 0 195 85.5t81 204.5zM557 159q-61 -29 -130 -29
q-73 0 -125 25q-55 26 -87.5 78t-32.5 113q0 92 70 151.5t179 59.5q60 0 117 -21l-33 -80q-37 9 -63 9q-61 0 -96.5 -33.5t-35.5 -91.5q0 -119 109 -119q46 0 81 16l11 5z" />
    <glyph glyph-name="ordfeminine" unicode="&#xaa;" horiz-adv-x="420" 
d="M382 279h-147q-2 10 -7 41q-67 -48 -101 -48q-44 0 -75 28t-31 67q0 87 151 113l58 10q-19 33 -54 33q-34 0 -85 -42l-42 64q72 44 158 44q96 0 139 -50q23 -28 23 -94v-68q0 -63 13 -98zM232 442l-21 -3q-57 -8 -57 -57q0 -14 8.5 -24t19.5 -10q27 0 41 35q6 17 9 59z
" />
    <glyph glyph-name="guillemotleft" unicode="&#xab;" horiz-adv-x="573" 
d="M529 88l-76 -33l-196 177l181 183l78 -28l-100 -150zM284 88l-76 -33l-196 177l181 183l78 -28l-99 -150z" />
    <glyph glyph-name="logicalnot" unicode="&#xac;" horiz-adv-x="532" 
d="M441 57h-106v138h-260v105h366v-243z" />
    <glyph glyph-name="minus" unicode="&#xad;" 
d="M582 195h-506v106h506v-106z" />
    <glyph glyph-name="minus" unicode="&#x2212;" 
d="M582 195h-506v106h506v-106z" />
    <glyph glyph-name="registered" unicode="&#xae;" horiz-adv-x="427" 
d="M397 596q0 -77 -53.5 -131t-129.5 -54t-130 54t-54 131q0 78 54 131.5t133 53.5q74 0 127 -54.5t53 -130.5zM361 595q0 65 -43.5 110.5t-105.5 45.5q-60 0 -103 -45.5t-43 -108.5q0 -64 43.5 -109.5t104.5 -45.5t104 45t43 108zM300 505l-50 -9l-36 82h-25v-78h-48v200
h71q42 0 58 -11q24 -16 24 -45q0 -40 -35 -56zM240 644q0 22 -31 22h-20v-51h20q31 0 31 29z" />
    <glyph glyph-name="macron" unicode="&#xaf;" horiz-adv-x="532" 
d="M481 583h-436v99h436v-99z" />
    <glyph glyph-name="macron" unicode="&#x2c9;" horiz-adv-x="532" 
d="M481 583h-436v99h436v-99z" />
    <glyph glyph-name="degree" unicode="&#xb0;" horiz-adv-x="423" 
d="M363 592q0 -62 -45 -106.5t-107 -44.5t-106.5 44t-44.5 106q0 64 44.5 108.5t108.5 44.5q61 0 105.5 -45t44.5 -107zM277 592q0 28 -19.5 47t-47.5 19q-27 0 -46 -19t-19 -47t19 -47t47 -19t47 19t19 47z" />
    <glyph glyph-name="plusminus" unicode="&#xb1;" 
d="M582 311h-200v-169h-106v169h-200v106h200v201h106v-201h200v-106zM582 -3h-506v105h506v-105z" />
    <glyph glyph-name="twosuperior" unicode="&#xb2;" horiz-adv-x="458" 
d="M417 279h-382v64q118 95 165 147t47 90q0 36 -39 36q-36 0 -106 -44l-53 71q83 62 187 62q79 0 127.5 -31t48.5 -81q0 -63 -80 -135q-18 -16 -104 -82h189v-97z" />
    <glyph glyph-name="threesuperior" unicode="&#xb3;" horiz-adv-x="458" 
d="M403 401q0 -58 -56.5 -93.5t-147.5 -35.5q-79 0 -151 22l39 78q51 -25 91 -25q59 0 59 54q0 43 -53 57q-27 7 -88 7v66q55 3 74 8q45 13 45 50q0 39 -44 39q-35 0 -79 -21l-38 68q69 30 152 30q79 0 125 -26t46 -71q0 -33 -20 -55t-69 -44q115 -26 115 -108z" />
    <glyph glyph-name="acute" unicode="&#xb4;" horiz-adv-x="532" 
d="M545 661l-317 -92l-40 31l271 162z" />
    <glyph glyph-name="mu1" unicode="&#xb5;" horiz-adv-x="667" 
d="M608 0h-199v57q-10 -38 -25.5 -52.5t-47.5 -14.5q-53 0 -72 67v-238h-199v681h199v-267q0 -57 16 -80t55 -23q40 0 57 23.5t17 77.5v269h199v-500z" />
    <glyph glyph-name="paragraph" unicode="&#xb6;" horiz-adv-x="728" 
d="M615 617h-52v-736h-105v736h-77v-736h-105v459q-7 -1 -16 -1q-79 0 -130.5 49t-51.5 128q0 70 37.5 116.5t104.5 59.5q32 7 102 7h293v-82z" />
    <glyph glyph-name="periodcentered" unicode="&#xb7;" horiz-adv-x="325" 
d="M253 250q0 -40 -26 -66.5t-66 -26.5t-67 26t-27 64q0 43 26.5 69.5t69.5 26.5q38 0 64 -26.5t26 -66.5z" />
    <glyph glyph-name="periodcentered" unicode="&#x2219;" horiz-adv-x="325" 
d="M253 250q0 -40 -26 -66.5t-66 -26.5t-67 26t-27 64q0 43 26.5 69.5t69.5 26.5q38 0 64 -26.5t26 -66.5z" />
    <glyph glyph-name="cedilla" unicode="&#xb8;" horiz-adv-x="532" 
d="M384 -149q0 -45 -42.5 -74t-108.5 -29q-44 0 -97 12l20 53q44 -10 67 -10q57 0 57 36q0 40 -47 40q-8 0 -32 -2l-9 7l49 116h63l-30 -73q22 2 26 2q37 0 60.5 -22t23.5 -56z" />
    <glyph glyph-name="onesuperior" unicode="&#xb9;" horiz-adv-x="458" 
d="M306 280h-159v329l-85 -32l-18 74l132 48h130v-419z" />
    <glyph glyph-name="ordmasculine" unicode="&#xba;" horiz-adv-x="439" 
d="M412 434q0 -70 -55 -116t-140 -46t-140.5 46t-55.5 115q0 68 55.5 112t142.5 44q82 0 137.5 -44.5t55.5 -110.5zM262 430q0 97 -46 97q-44 0 -44 -96q0 -97 45 -97t45 96z" />
    <glyph glyph-name="guillemotright" unicode="&#xbb;" horiz-adv-x="572" 
d="M552 238l-181 -183l-78 27l100 152l-114 147l77 34zM307 238l-181 -183l-78 27l100 152l-113 147l76 34z" />
    <glyph glyph-name="onequarter" unicode="&#xbc;" horiz-adv-x="1032" 
d="M972 90h-72v-90h-127v90h-219v60l233 269h113v-255h72v-74zM733 699l-364 -699h-99l364 699h99zM332 280h-158v329l-86 -32l-18 74l132 48h130v-419zM773 164v161q-32 -44 -122 -161h122z" />
    <glyph glyph-name="onehalf" unicode="&#xbd;" horiz-adv-x="1032" 
d="M965 0h-383v64q120 95 166.5 147t46.5 90q0 35 -39 35q-37 0 -107 -43l-53 71q83 62 188 62q79 0 128 -31t49 -81q0 -59 -68 -124q-19 -19 -117 -93h189v-97zM722 699l-363 -699h-99l364 699h98zM322 280h-158v329l-86 -32l-18 74l132 48h130v-419z" />
    <glyph glyph-name="threequarters" unicode="&#xbe;" horiz-adv-x="1032" 
d="M972 90h-72v-90h-127v90h-219v60l233 269h113v-255h72v-74zM756 699l-364 -699h-98l363 699h99zM403 401q0 -58 -56.5 -93.5t-147.5 -35.5q-79 0 -151 22l39 78q51 -25 91 -25q59 0 59 54q0 43 -53 57q-27 7 -88 7v66q55 3 74 8q45 13 45 50q0 39 -44 39q-35 0 -79 -21
l-38 68q69 30 152 30q79 0 125 -26t46 -71q0 -33 -20 -55t-69 -44q115 -26 115 -108zM773 164v161q-32 -44 -122 -161h122z" />
    <glyph glyph-name="questiondown" unicode="&#xbf;" horiz-adv-x="554" 
d="M391 416q0 -40 -26 -66.5t-66 -26.5t-67 26.5t-27 64.5q0 42 26.5 68.5t69.5 26.5q38 0 64 -26.5t26 -66.5zM497 -140q-52 -52 -105 -74t-127 -22q-88 0 -152 33q-82 41 -82 121q0 59 42 115q14 19 57 68q47 54 65 87t24 78h152q2 -22 2 -24q0 -53 -80 -187
q-45 -75 -45 -113q0 -30 19 -48t51 -18q27 0 48 12t62 52z" />
    <glyph glyph-name="Agrave" unicode="&#xc0;" horiz-adv-x="735" 
d="M501 785l-37 -34l-318 93l86 101zM741 0h-223l-55 168h-217l-68 -168h-164l285 700h177zM430 278l-70 219l-79 -219h149z" />
    <glyph glyph-name="Aacute" unicode="&#xc1;" horiz-adv-x="735" 
d="M594 841l-317 -92l-40 31l271 162zM741 0h-223l-55 168h-217l-68 -168h-164l285 700h177zM430 278l-70 219l-79 -219h149z" />
    <glyph glyph-name="Acircumflex" unicode="&#xc2;" horiz-adv-x="735" 
d="M571 748h-78l-120 99l-119 -99h-77l157 194h80zM741 0h-223l-55 168h-217l-68 -168h-164l285 700h177zM430 278l-70 219l-79 -219h149z" />
    <glyph glyph-name="Atilde" unicode="&#xc3;" horiz-adv-x="735" 
d="M572 906q-6 -41 -21 -74q-38 -83 -112 -83q-31 0 -92 31q-43 22 -65 22q-45 0 -65 -53h-58q12 53 24 78q35 75 106 75q28 0 78 -26.5t76 -26.5q53 0 73 57h56zM741 0h-223l-55 168h-217l-68 -168h-164l285 700h177zM430 278l-70 219l-79 -219h149z" />
    <glyph glyph-name="Adieresis" unicode="&#xc4;" horiz-adv-x="735" 
d="M576 829q0 -33 -22.5 -55.5t-54.5 -22.5q-33 0 -55.5 22.5t-22.5 54.5q0 33 22.5 56t56.5 23q31 0 53.5 -23t22.5 -55zM322 829q0 -33 -22.5 -55.5t-55.5 -22.5q-32 0 -55 22.5t-23 55.5t22.5 56t56.5 23q32 0 54.5 -23.5t22.5 -55.5zM741 0h-223l-55 168h-217l-68 -168
h-164l285 700h177zM430 278l-70 219l-79 -219h149z" />
    <glyph glyph-name="Aring" unicode="&#xc5;" horiz-adv-x="735" 
d="M495 870q0 -50 -36 -85.5t-87 -35.5q-50 0 -86.5 35.5t-36.5 85.5q0 52 36 87.5t89 35.5q50 0 85.5 -36t35.5 -87zM741 0h-223l-55 168h-217l-68 -168h-164l285 700h177zM420 870q0 21 -14.5 36t-34.5 15q-19 0 -33 -15.5t-14 -35.5t14 -34.5t34 -14.5t34 14.5t14 34.5z
M430 278l-70 219l-79 -219h149z" />
    <glyph glyph-name="AE" unicode="&#xc6;" horiz-adv-x="950" 
d="M908 0h-466v167h-225l-89 -167h-163l400 700h501v-133h-215v-134h210v-134h-210v-166h257v-133zM442 278v308l-166 -308h166z" />
    <glyph glyph-name="Ccedilla" unicode="&#xc7;" horiz-adv-x="671" 
d="M641 18q-74 -28 -208 -28l-27 -65q12 1 25 1q40 0 64.5 -22t24.5 -58q0 -45 -47.5 -75t-119.5 -30q-53 0 -101 13l21 53q42 -10 65 -10q61 0 61 38q0 42 -47 42q-13 0 -35 -11l-9 14l52 120q-101 26 -162 69q-70 49 -109 124t-39 163q0 156 114 256t290 100q93 0 187 -35
l-52 -126q-56 15 -99 15q-100 0 -160.5 -60t-60.5 -160t59.5 -156t165.5 -56q52 0 108 16z" />
    <glyph glyph-name="Egrave" unicode="&#xc8;" horiz-adv-x="590" 
d="M420 784l-37 -34l-318 93l86 101zM544 0h-468v700h426v-133h-216v-134h211v-134h-211v-166h258v-133z" />
    <glyph glyph-name="Eacute" unicode="&#xc9;" horiz-adv-x="590" 
d="M518 840l-317 -92l-40 31l271 162zM544 0h-468v700h426v-133h-216v-134h211v-134h-211v-166h258v-133z" />
    <glyph glyph-name="Ecircumflex" unicode="&#xca;" horiz-adv-x="590" 
d="M483 748h-78l-120 99l-119 -99h-77l157 194h80zM544 0h-468v700h426v-133h-216v-134h211v-134h-211v-166h258v-133z" />
    <glyph glyph-name="Edieresis" unicode="&#xcb;" horiz-adv-x="590" 
d="M496 826q0 -33 -22.5 -55.5t-54.5 -22.5q-33 0 -55.5 22.5t-22.5 54.5q0 33 22.5 56t56.5 23q31 0 53.5 -23t22.5 -55zM242 826q0 -33 -22.5 -55.5t-55.5 -22.5q-32 0 -55 22.5t-23 55.5t22.5 56t56.5 23q32 0 54.5 -23.5t22.5 -55.5zM544 0h-468v700h426v-133h-216v-134
h211v-134h-211v-166h258v-133z" />
    <glyph glyph-name="Igrave" unicode="&#xcc;" horiz-adv-x="374" 
d="M314 784l-37 -34l-318 93l86 101zM290 0h-210v700h210v-700z" />
    <glyph glyph-name="Iacute" unicode="&#xcd;" horiz-adv-x="374" 
d="M414 843l-317 -92l-40 31l271 162zM290 0h-210v700h210v-700z" />
    <glyph glyph-name="Icircumflex" unicode="&#xce;" horiz-adv-x="374" 
d="M388 745h-78l-120 99l-119 -99h-77l157 194h80zM290 0h-210v700h210v-700z" />
    <glyph glyph-name="Idieresis" unicode="&#xcf;" horiz-adv-x="374" 
d="M396 829q0 -33 -22.5 -55.5t-54.5 -22.5q-33 0 -55.5 22.5t-22.5 54.5q0 33 22.5 56t56.5 23q31 0 53.5 -23t22.5 -55zM142 829q0 -33 -22.5 -55.5t-55.5 -22.5q-32 0 -55 22.5t-23 55.5t22.5 56t56.5 23q32 0 54.5 -23.5t22.5 -55.5zM290 0h-210v700h210v-700z" />
    <glyph glyph-name="Eth" unicode="&#xd0;" horiz-adv-x="790" 
d="M740 368q0 -96 -40 -175t-112 -127q-100 -66 -275 -66h-233v314h-76v95h76v291h222q112 0 161 -9q131 -24 204 -109.5t73 -213.5zM520 364q0 125 -76 175q-42 28 -118 28h-35l1 -158h106v-95h-107v-181h31q95 0 140 46q58 60 58 185z" />
    <glyph glyph-name="Ntilde" unicode="&#xd1;" horiz-adv-x="779" 
d="M592 906q-6 -41 -21 -74q-38 -83 -112 -83q-31 0 -92 31q-43 22 -65 22q-45 0 -65 -53h-58q12 53 24 78q35 75 106 75q28 0 78 -26.5t76 -26.5q53 0 73 57h56zM691 0h-133l-317 396v-396h-165v700h146l304 -389v389h165v-700z" />
    <glyph glyph-name="Ograve" unicode="&#xd2;" horiz-adv-x="795" 
d="M523 786l-37 -34l-318 93l86 101zM747 353q0 -157 -94 -259q-97 -106 -253 -106t-253 105q-95 102 -95 258q0 159 100 260t258 101q144 0 240.5 -102.5t96.5 -256.5zM527 347q0 219 -129 219q-127 0 -127 -216t128 -216t128 213z" />
    <glyph glyph-name="Oacute" unicode="&#xd3;" horiz-adv-x="795" 
d="M640 844l-317 -92l-40 31l271 162zM747 353q0 -157 -94 -259q-97 -106 -253 -106t-253 105q-95 102 -95 258q0 159 100 260t258 101q144 0 240.5 -102.5t96.5 -256.5zM527 347q0 219 -129 219q-127 0 -127 -216t128 -216t128 213z" />
    <glyph glyph-name="Ocircumflex" unicode="&#xd4;" horiz-adv-x="795" 
d="M596 748h-78l-120 99l-119 -99h-77l157 194h80zM747 353q0 -157 -94 -259q-97 -106 -253 -106t-253 105q-95 102 -95 258q0 159 100 260t258 101q144 0 240.5 -102.5t96.5 -256.5zM527 347q0 219 -129 219q-127 0 -127 -216t128 -216t128 213z" />
    <glyph glyph-name="Otilde" unicode="&#xd5;" horiz-adv-x="795" 
d="M609 906q-6 -41 -21 -74q-38 -83 -112 -83q-31 0 -92 31q-43 22 -65 22q-45 0 -65 -53h-58q12 53 24 78q35 75 106 75q28 0 78 -26.5t76 -26.5q53 0 73 57h56zM747 353q0 -157 -94 -259q-97 -106 -253 -106t-253 105q-95 102 -95 258q0 159 100 260t258 101
q144 0 240.5 -102.5t96.5 -256.5zM527 347q0 219 -129 219q-127 0 -127 -216t128 -216t128 213z" />
    <glyph glyph-name="Odieresis" unicode="&#xd6;" horiz-adv-x="795" 
d="M605 823q0 -33 -22.5 -55.5t-54.5 -22.5q-33 0 -55.5 22.5t-22.5 54.5q0 33 22.5 56t56.5 23q31 0 53.5 -23t22.5 -55zM351 823q0 -33 -22.5 -55.5t-55.5 -22.5q-32 0 -55 22.5t-23 55.5t22.5 56t56.5 23q32 0 54.5 -23.5t22.5 -55.5zM747 353q0 -157 -94 -259
q-97 -106 -253 -106t-253 105q-95 102 -95 258q0 159 100 260t258 101q144 0 240.5 -102.5t96.5 -256.5zM527 347q0 219 -129 219q-127 0 -127 -216t128 -216t128 213z" />
    <glyph glyph-name="multiply" unicode="&#xd7;" 
d="M545 107l-75 -75l-141 145l-141 -144l-74 75l143 141l-144 141l74 74l142 -144l140 143l76 -74l-145 -140z" />
    <glyph glyph-name="Oslash" unicode="&#xd8;" horiz-adv-x="803" 
d="M787 651l-96 -91q57 -91 57 -205q0 -158 -92 -261q-96 -106 -253 -106q-131 0 -228 79l-92 -87l-67 71l94 92q-57 95 -57 209q0 157 100 258.5t254 101.5q119 0 218 -76l92 89zM491 522q-33 44 -89 44q-130 0 -130 -226q0 -27 4 -52zM529 345q0 39 -5 70l-217 -233
q34 -48 92 -48q130 0 130 211z" />
    <glyph glyph-name="Ugrave" unicode="&#xd9;" horiz-adv-x="746" 
d="M679 315q0 -113 -21 -166q-63 -161 -287 -161q-182 0 -259 111q-31 44 -39 108q-4 31 -4 116v377h209v-342q0 -129 16 -167q24 -57 87 -57q83 0 106 83q11 39 11 146v337h181v-385zM502 784l-37 -34l-318 93l86 101z" />
    <glyph glyph-name="Uacute" unicode="&#xda;" horiz-adv-x="746" 
d="M679 315q0 -113 -21 -166q-63 -161 -287 -161q-182 0 -259 111q-31 44 -39 108q-4 31 -4 116v377h209v-342q0 -129 16 -167q24 -57 87 -57q83 0 106 83q11 39 11 146v337h181v-385zM630 840l-317 -92l-40 31l271 162z" />
    <glyph glyph-name="Ucircumflex" unicode="&#xdb;" horiz-adv-x="746" 
d="M679 315q0 -113 -21 -166q-63 -161 -287 -161q-182 0 -259 111q-31 44 -39 108q-4 31 -4 116v377h209v-342q0 -129 16 -167q24 -57 87 -57q83 0 106 83q11 39 11 146v337h181v-385zM575 750h-78l-120 99l-119 -99h-77l157 194h80z" />
    <glyph glyph-name="Udieresis" unicode="&#xdc;" horiz-adv-x="746" 
d="M679 315q0 -113 -21 -166q-63 -161 -287 -161q-182 0 -259 111q-31 44 -39 108q-4 31 -4 116v377h209v-342q0 -129 16 -167q24 -57 87 -57q83 0 106 83q11 39 11 146v337h181v-385zM588 824q0 -33 -22.5 -55.5t-54.5 -22.5q-33 0 -55.5 22.5t-22.5 54.5q0 33 22.5 56
t56.5 23q31 0 53.5 -23t22.5 -55zM334 824q0 -33 -22.5 -55.5t-55.5 -22.5q-32 0 -55 22.5t-23 55.5t22.5 56t56.5 23q32 0 54.5 -23.5t22.5 -55.5z" />
    <glyph glyph-name="Yacute" unicode="&#xdd;" horiz-adv-x="638" 
d="M634 692l-217 -420v-272h-210v272l-203 410l224 28l108 -277l128 277zM577 843l-317 -92l-40 31l271 162z" />
    <glyph glyph-name="Thorn" unicode="&#xde;" horiz-adv-x="677" 
d="M649 377q0 -128 -104 -194q-88 -55 -221 -55h-35v-128h-210v700h210v-113h42q150 0 220 -41q98 -58 98 -169zM437 365q0 110 -138 110h-10v-239h8q62 0 101 34t39 95z" />
    <glyph glyph-name="germandbls" unicode="&#xdf;" horiz-adv-x="745" 
d="M701 151q0 -70 -60 -116.5t-149 -46.5q-102 0 -182 47l42 102q70 -46 107 -46q44 0 44 39q0 32 -63.5 74.5t-86 72.5t-22.5 73q0 45 41 101q45 62 50 86q2 9 2 22q0 70 -63 70q-57 0 -76 -52q-16 -42 -16 -157v-420h-199v418q0 122 8 155q18 78 92 121q67 39 180 39
q105 0 177 -46t72 -113q0 -43 -40 -107q-30 -48 -30 -77q0 -34 39 -69q6 -6 66 -50q67 -49 67 -120z" />
    <glyph glyph-name="agrave" unicode="&#xe0;" horiz-adv-x="612" 
d="M421 602l-37 -34l-318 93l86 101zM565 0h-210q-7 25 -7 55q-71 -67 -156 -67q-60 0 -105 45t-45 107q0 82 71 138q51 40 161 63l81 17q-28 50 -89 50q-60 0 -124 -54l-56 89q106 69 229 69q138 0 197 -77q35 -46 35 -162v-116q0 -100 18 -157zM354 212v45q-12 -3 -42 -11
q-89 -24 -89 -80q0 -23 16 -40.5t36 -17.5t39.5 12t28.5 32q11 25 11 60z" />
    <glyph glyph-name="aacute" unicode="&#xe1;" horiz-adv-x="612" 
d="M537 661l-317 -92l-40 31l271 162zM565 0h-210q-7 25 -7 55q-71 -67 -156 -67q-60 0 -105 45t-45 107q0 82 71 138q51 40 161 63l81 17q-28 50 -89 50q-60 0 -124 -54l-56 89q106 69 229 69q138 0 197 -77q35 -46 35 -162v-116q0 -100 18 -157zM354 212v45
q-12 -3 -42 -11q-89 -24 -89 -80q0 -23 16 -40.5t36 -17.5t39.5 12t28.5 32q11 25 11 60z" />
    <glyph glyph-name="acircumflex" unicode="&#xe2;" horiz-adv-x="612" 
d="M498 545h-78l-120 99l-119 -99h-77l157 194h80zM565 0h-210q-7 25 -7 55q-71 -67 -156 -67q-60 0 -105 45t-45 107q0 82 71 138q51 40 161 63l81 17q-28 50 -89 50q-60 0 -124 -54l-56 89q106 69 229 69q138 0 197 -77q35 -46 35 -162v-116q0 -100 18 -157zM354 212v45
q-12 -3 -42 -11q-89 -24 -89 -80q0 -23 16 -40.5t36 -17.5t39.5 12t28.5 32q11 25 11 60z" />
    <glyph glyph-name="atilde" unicode="&#xe3;" horiz-adv-x="612" 
d="M500 724q-6 -41 -21 -74q-38 -83 -112 -83q-31 0 -92 31q-43 22 -65 22q-45 0 -65 -53h-58q12 53 24 78q35 75 106 75q28 0 78 -26.5t76 -26.5q53 0 73 57h56zM565 0h-210q-7 25 -7 55q-71 -67 -156 -67q-60 0 -105 45t-45 107q0 82 71 138q51 40 161 63l81 17
q-28 50 -89 50q-60 0 -124 -54l-56 89q106 69 229 69q138 0 197 -77q35 -46 35 -162v-116q0 -100 18 -157zM354 212v45q-12 -3 -42 -11q-89 -24 -89 -80q0 -23 16 -40.5t36 -17.5t39.5 12t28.5 32q11 25 11 60z" />
    <glyph glyph-name="adieresis" unicode="&#xe4;" horiz-adv-x="612" 
d="M501 659q0 -33 -22.5 -55.5t-54.5 -22.5q-33 0 -55.5 22.5t-22.5 54.5q0 33 22.5 56t56.5 23q31 0 53.5 -23t22.5 -55zM247 659q0 -33 -22.5 -55.5t-55.5 -22.5q-32 0 -55 22.5t-23 55.5t22.5 56t56.5 23q32 0 54.5 -23.5t22.5 -55.5zM565 0h-210q-7 25 -7 55
q-71 -67 -156 -67q-60 0 -105 45t-45 107q0 82 71 138q51 40 161 63l81 17q-28 50 -89 50q-60 0 -124 -54l-56 89q106 69 229 69q138 0 197 -77q35 -46 35 -162v-116q0 -100 18 -157zM354 212v45q-12 -3 -42 -11q-89 -24 -89 -80q0 -23 16 -40.5t36 -17.5t39.5 12t28.5 32
q11 25 11 60z" />
    <glyph glyph-name="aring" unicode="&#xe5;" horiz-adv-x="612" 
d="M436 662q0 -50 -36 -85.5t-87 -35.5q-50 0 -86.5 35.5t-36.5 85.5q0 52 36 87.5t89 35.5q50 0 85.5 -36t35.5 -87zM565 0h-210q-7 25 -7 55q-71 -67 -156 -67q-60 0 -105 45t-45 107q0 82 71 138q51 40 161 63l81 17q-28 50 -89 50q-60 0 -124 -54l-56 89q106 69 229 69
q138 0 197 -77q35 -46 35 -162v-116q0 -100 18 -157zM361 662q0 21 -14.5 36t-34.5 15q-19 0 -33 -15.5t-14 -35.5t14 -34.5t34 -14.5t34 14.5t14 34.5zM354 212v45q-12 -3 -42 -11q-89 -24 -89 -80q0 -23 16 -40.5t36 -17.5t39.5 12t28.5 32q11 25 11 60z" />
    <glyph glyph-name="ae" unicode="&#xe6;" horiz-adv-x="901" 
d="M859 268q0 -13 -3 -42h-300q0 -53 33.5 -86t87.5 -33q61 0 125 36l54 -101q-98 -54 -222 -54q-150 0 -221 112q-75 -65 -130 -90q-46 -22 -98 -22q-60 0 -105 45t-45 107q0 82 71 138q51 40 161 63l81 17q-28 50 -89 50q-60 0 -124 -54l-56 89q106 69 229 69
q97 0 157 -42q77 42 152 42q140 0 199 -88q43 -64 43 -156zM689 310q1 11 1 22q0 97 -66 97q-69 0 -68 -119h133zM347 212v45q-12 -3 -42 -11q-89 -24 -89 -80q0 -23 16 -40.5t36 -17.5t39.5 12t28.5 32q11 25 11 60z" />
    <glyph glyph-name="ccedilla" unicode="&#xe7;" horiz-adv-x="521" 
d="M505 28q-84 -41 -178 -40l-25 -61q12 1 25 1q38 0 61.5 -22t23.5 -56q0 -44 -42.5 -73t-108.5 -29q-43 0 -97 12l21 53q44 -10 66 -10q58 0 58 36q0 40 -49 40q-1 0 -31 -2l-10 7l46 107q-103 18 -165 81q-66 69 -66 172q0 115 86.5 191.5t216.5 76.5q89 0 168 -42
l-51 -102q-48 17 -85 17q-58 0 -91.5 -36t-33.5 -97q0 -63 33 -99.5t90 -36.5q34 0 86 19z" />
    <glyph glyph-name="egrave" unicode="&#xe8;" horiz-adv-x="592" 
d="M550 270q0 -28 -1 -44h-307q1 -58 34.5 -88.5t89.5 -30.5q58 0 130 35l53 -100q-115 -54 -224 -54q-117 0 -195 66q-97 82 -97 206q0 118 88 190q76 62 192 62q133 0 193 -88q44 -64 44 -154zM381 310v19q0 100 -69 100q-70 0 -70 -119h139zM428 602l-37 -34l-318 93
l86 101z" />
    <glyph glyph-name="eacute" unicode="&#xe9;" horiz-adv-x="592" 
d="M550 270q0 -28 -1 -44h-307q1 -58 34.5 -88.5t89.5 -30.5q58 0 130 35l53 -100q-115 -54 -224 -54q-117 0 -195 66q-97 82 -97 206q0 118 88 190q76 62 192 62q133 0 193 -88q44 -64 44 -154zM381 310v19q0 100 -69 100q-70 0 -70 -119h139zM545 661l-317 -92l-40 31
l271 162z" />
    <glyph glyph-name="ecircumflex" unicode="&#xea;" horiz-adv-x="592" 
d="M550 270q0 -28 -1 -44h-307q1 -58 34.5 -88.5t89.5 -30.5q58 0 130 35l53 -100q-115 -54 -224 -54q-117 0 -195 66q-97 82 -97 206q0 118 88 190q76 62 192 62q133 0 193 -88q44 -64 44 -154zM381 310v19q0 100 -69 100q-70 0 -70 -119h139zM500 545h-78l-120 99
l-119 -99h-77l157 194h80z" />
    <glyph glyph-name="edieresis" unicode="&#xeb;" horiz-adv-x="592" 
d="M550 270q0 -28 -1 -44h-307q1 -58 34.5 -88.5t89.5 -30.5q58 0 130 35l53 -100q-115 -54 -224 -54q-117 0 -195 66q-97 82 -97 206q0 118 88 190q76 62 192 62q133 0 193 -88q44 -64 44 -154zM381 310v19q0 100 -69 100q-70 0 -70 -119h139zM500 659q0 -33 -22.5 -55.5
t-54.5 -22.5q-33 0 -55.5 22.5t-22.5 54.5q0 33 22.5 56t56.5 23q31 0 53.5 -23t22.5 -55zM246 659q0 -33 -22.5 -55.5t-55.5 -22.5q-32 0 -55 22.5t-23 55.5t22.5 56t56.5 23q32 0 54.5 -23.5t22.5 -55.5z" />
    <glyph glyph-name="igrave" unicode="&#xec;" horiz-adv-x="339" 
d="M269 0h-199v500h199v-500zM292 602l-37 -34l-318 93l86 101z" />
    <glyph glyph-name="iacute" unicode="&#xed;" horiz-adv-x="339" 
d="M269 0h-199v500h199v-500zM403 661l-317 -92l-40 31l271 162z" />
    <glyph glyph-name="icircumflex" unicode="&#xee;" horiz-adv-x="339" 
d="M347 545h-78l-100 99l-100 -99h-76l136 194h80zM269 0h-199v500h199v-500z" />
    <glyph glyph-name="idieresis" unicode="&#xef;" horiz-adv-x="339" 
d="M358 659q0 -33 -22.5 -55.5t-54.5 -22.5q-33 0 -55.5 22.5t-22.5 54.5q0 33 22.5 56t56.5 23q31 0 53.5 -23t22.5 -55zM144 659q0 -33 -22.5 -55.5t-55.5 -22.5q-32 0 -55 22.5t-23 55.5t22.5 56t56.5 23q32 0 54.5 -23.5t22.5 -55.5zM269 0h-199v500h199v-500z" />
    <glyph glyph-name="eth" unicode="&#xf0;" horiz-adv-x="642" 
d="M608 270q0 -58 -20.5 -112.5t-53.5 -87.5q-82 -82 -213 -82q-125 0 -206 75t-81 191q0 131 114 211q66 46 169 46q22 0 37 -3q-21 47 -49 74l-203 -36l-21 78l135 19q-25 13 -84 28l32 73q115 -14 216 -58l152 25l23 -78l-84 -12q61 -58 99 -154t38 -197zM405 243
q0 179 -84 179q-39 0 -61.5 -46.5t-22.5 -127.5q0 -77 23 -124t60 -47q40 0 62.5 44t22.5 122z" />
    <glyph glyph-name="ntilde" unicode="&#xf1;" horiz-adv-x="683" 
d="M613 0h-199v296q0 89 -66 89q-79 0 -79 -104v-281h-199v500h199v-73q67 85 168 85q116 0 157 -85q19 -39 19 -136v-291zM541 724q-6 -41 -21 -74q-38 -83 -112 -83q-31 0 -92 31q-43 22 -65 22q-45 0 -65 -53h-58q12 53 24 78q35 75 106 75q28 0 78 -26.5t76 -26.5
q53 0 73 57h56z" />
    <glyph glyph-name="ograve" unicode="&#xf2;" horiz-adv-x="642" 
d="M438 602l-37 -34l-318 93l86 101zM609 255q0 -116 -81 -191.5t-206 -75.5q-126 0 -206.5 75t-80.5 191q0 113 81.5 185.5t208.5 72.5q122 0 203 -73.5t81 -183.5zM405 251q0 172 -84 172q-38 0 -60.5 -46.5t-22.5 -124.5q0 -80 22.5 -127.5t60.5 -47.5q40 0 62 46t22 128
z" />
    <glyph glyph-name="oacute" unicode="&#xf3;" horiz-adv-x="642" 
d="M551 661l-317 -92l-40 31l271 162zM609 255q0 -116 -81 -191.5t-206 -75.5q-126 0 -206.5 75t-80.5 191q0 113 81.5 185.5t208.5 72.5q122 0 203 -73.5t81 -183.5zM405 251q0 172 -84 172q-38 0 -60.5 -46.5t-22.5 -124.5q0 -80 22.5 -127.5t60.5 -47.5q40 0 62 46
t22 128z" />
    <glyph glyph-name="ocircumflex" unicode="&#xf4;" horiz-adv-x="642" 
d="M513 545h-78l-120 99l-119 -99h-77l157 194h80zM609 255q0 -116 -81 -191.5t-206 -75.5q-126 0 -206.5 75t-80.5 191q0 113 81.5 185.5t208.5 72.5q122 0 203 -73.5t81 -183.5zM405 251q0 172 -84 172q-38 0 -60.5 -46.5t-22.5 -124.5q0 -80 22.5 -127.5t60.5 -47.5
q40 0 62 46t22 128z" />
    <glyph glyph-name="otilde" unicode="&#xf5;" horiz-adv-x="642" 
d="M526 724q-6 -41 -21 -74q-38 -83 -112 -83q-31 0 -92 31q-43 22 -65 22q-45 0 -65 -53h-58q12 53 24 78q35 75 106 75q28 0 78 -26.5t76 -26.5q53 0 73 57h56zM609 255q0 -116 -81 -191.5t-206 -75.5q-126 0 -206.5 75t-80.5 191q0 113 81.5 185.5t208.5 72.5
q122 0 203 -73.5t81 -183.5zM405 251q0 172 -84 172q-38 0 -60.5 -46.5t-22.5 -124.5q0 -80 22.5 -127.5t60.5 -47.5q40 0 62 46t22 128z" />
    <glyph glyph-name="odieresis" unicode="&#xf6;" horiz-adv-x="642" 
d="M527 659q0 -33 -22.5 -55.5t-54.5 -22.5q-33 0 -55.5 22.5t-22.5 54.5q0 33 22.5 56t56.5 23q31 0 53.5 -23t22.5 -55zM273 659q0 -33 -22.5 -55.5t-55.5 -22.5q-32 0 -55 22.5t-23 55.5t22.5 56t56.5 23q32 0 54.5 -23.5t22.5 -55.5zM609 255q0 -116 -81 -191.5
t-206 -75.5q-126 0 -206.5 75t-80.5 191q0 113 81.5 185.5t208.5 72.5q122 0 203 -73.5t81 -183.5zM405 251q0 172 -84 172q-38 0 -60.5 -46.5t-22.5 -124.5q0 -80 22.5 -127.5t60.5 -47.5q40 0 62 46t22 128z" />
    <glyph glyph-name="divide" unicode="&#xf7;" 
d="M414 449q0 -37 -25.5 -62t-62.5 -25q-36 0 -61.5 25.5t-25.5 61.5q0 37 25.5 62t62.5 25q36 0 61.5 -25t25.5 -62zM582 195h-506v106h506v-106zM415 49q0 -37 -25.5 -63t-62.5 -26t-62.5 26t-25.5 63t25.5 62t63.5 25q36 0 61.5 -25t25.5 -62z" />
    <glyph glyph-name="oslash" unicode="&#xf8;" horiz-adv-x="642" 
d="M648 464l-69 -59q50 -68 50 -149q0 -117 -80.5 -192.5t-204.5 -75.5q-110 0 -194 63l-70 -62l-46 55l69 57q-47 77 -47 154q0 106 75 179q80 78 210 78q105 0 187 -57l74 63zM413 369q-20 57 -67 57q-44 0 -69 -46t-25 -126q0 -22 1 -39zM432 248q0 24 -1 42l-161 -155
q25 -61 72 -61q51 0 74 66q16 45 16 108z" />
    <glyph glyph-name="ugrave" unicode="&#xf9;" horiz-adv-x="678" 
d="M608 0h-200v73q-67 -85 -167 -85q-115 0 -156 82q-20 40 -20 139v291h199v-296q0 -88 65 -88q79 0 79 102v282h200v-500zM449 602l-37 -34l-318 93l86 101z" />
    <glyph glyph-name="uacute" unicode="&#xfa;" horiz-adv-x="678" 
d="M608 0h-200v73q-67 -85 -167 -85q-115 0 -156 82q-20 40 -20 139v291h199v-296q0 -88 65 -88q79 0 79 102v282h200v-500zM576 661l-317 -92l-40 31l271 162z" />
    <glyph glyph-name="ucircumflex" unicode="&#xfb;" horiz-adv-x="678" 
d="M608 0h-200v73q-67 -85 -167 -85q-115 0 -156 82q-20 40 -20 139v291h199v-296q0 -88 65 -88q79 0 79 102v282h200v-500zM532 545h-78l-120 99l-119 -99h-77l157 194h80z" />
    <glyph glyph-name="udieresis" unicode="&#xfc;" horiz-adv-x="678" 
d="M608 0h-200v73q-67 -85 -167 -85q-115 0 -156 82q-20 40 -20 139v291h199v-296q0 -88 65 -88q79 0 79 102v282h200v-500zM529 659q0 -33 -22.5 -55.5t-54.5 -22.5q-33 0 -55.5 22.5t-22.5 54.5q0 33 22.5 56t56.5 23q31 0 53.5 -23t22.5 -55zM275 659q0 -33 -22.5 -55.5
t-55.5 -22.5q-32 0 -55 22.5t-23 55.5t22.5 56t56.5 23q32 0 54.5 -23.5t22.5 -55.5z" />
    <glyph glyph-name="yacute" unicode="&#xfd;" horiz-adv-x="554" 
d="M553 486l-233 -531q-51 -117 -92 -154q-32 -29 -71.5 -40t-112.5 -11h-47v124h32q71 0 111 51q27 35 51 117l-179 441l198 27l87 -296l102 296zM541 661l-317 -92l-40 31l271 162z" />
    <glyph glyph-name="thorn" unicode="&#xfe;" horiz-adv-x="679" 
d="M645 261q0 -115 -68 -194t-168 -79q-43 0 -75 17.5t-70 61.5v-317h-194v984h194v-301q39 44 75.5 61.5t87.5 17.5q97 0 157.5 -69.5t60.5 -181.5zM435 255q0 71 -22.5 112t-61.5 41q-41 0 -64.5 -42t-23.5 -115t22.5 -116.5t59.5 -43.5q49 0 73 62q17 45 17 102z" />
    <glyph glyph-name="ydieresis" unicode="&#xff;" horiz-adv-x="559" 
d="M491 659q0 -33 -22.5 -55.5t-54.5 -22.5q-33 0 -55.5 22.5t-22.5 54.5q0 33 22.5 56t56.5 23q31 0 53.5 -23t22.5 -55zM237 659q0 -33 -22.5 -55.5t-55.5 -22.5q-32 0 -55 22.5t-23 55.5t22.5 56t56.5 23q32 0 54.5 -23.5t22.5 -55.5zM555 486l-233 -531
q-51 -117 -92 -154q-32 -29 -71.5 -40t-112.5 -11h-47v124h32q71 0 111 51q27 35 51 117l-179 441l198 27l87 -296l102 296z" />
    <glyph glyph-name="dotlessi" unicode="&#x131;" horiz-adv-x="339" 
d="M269 0h-199v500h199v-500z" />
    <glyph glyph-name="Lslash" unicode="&#x141;" horiz-adv-x="574" 
d="M568 0h-466v261l-83 -49l-44 73l127 78v337h209v-220l91 53l45 -75l-136 -80v-245h257v-133z" />
    <glyph glyph-name="lslash" unicode="&#x142;" horiz-adv-x="339" 
d="M397 466l-129 -78v-388h-199v278l-82 -50l-43 73l125 75v358h199v-247l85 50z" />
    <glyph glyph-name="OE" unicode="&#x152;" horiz-adv-x="1045" 
d="M1003 0h-470q-91 -12 -134 -12q-163 0 -256 101t-93 263q0 157 97.5 258.5t248.5 101.5q29 0 144 -12h420v-133h-217v-134h212v-134h-212v-166h260v-133zM533 165v378q-62 24 -110 24q-154 0 -154 -216q0 -218 149 -218q60 0 115 32z" />
    <glyph glyph-name="oe" unicode="&#x153;" horiz-adv-x="987" 
d="M946 278q0 -10 -2 -52h-303q9 -119 123 -119q66 0 125 36l55 -101q-108 -54 -222 -54q-118 0 -190 82q-85 -82 -204 -82q-124 0 -206 68q-88 72 -88 194t93 195q85 67 210 67q101 0 195 -55q76 55 179 55q109 0 172 -62.5t63 -171.5zM777 310q1 11 1 21q0 97 -67 97
q-69 0 -68 -118h134zM434 249q0 83 -25 128.5t-70 45.5q-44 0 -69.5 -46t-25.5 -125q0 -81 25.5 -128t69.5 -47t69.5 46.5t25.5 125.5z" />
    <glyph glyph-name="Scaron" unicode="&#x160;" horiz-adv-x="574" 
d="M521 195q0 -93 -74.5 -150t-195.5 -57q-124 0 -221 65l64 116q59 -50 127 -50q37 0 63 19t26 49q0 28 -25 59q-17 20 -77 74q-37 32 -95 85q-52 57 -52 124q0 83 68 133t179 50q97 0 185 -47l-56 -110q-55 26 -95 26q-66 0 -66 -44q0 -17 13.5 -34t59.5 -56
q54 -46 105 -100q67 -71 67 -152zM483 944l-157 -194h-80l-157 194h77l119 -100l120 100h78z" />
    <glyph glyph-name="scaron" unicode="&#x161;" horiz-adv-x="457" 
d="M420 145q0 -70 -61 -113.5t-155 -43.5q-102 0 -178 49l42 101q66 -47 106 -47q21 0 36 12t15 30q0 17 -18 35q-13 12 -68 53q-46 34 -65 59q-28 37 -28 84q0 68 53.5 108t140.5 40t162 -35l-42 -90q-37 21 -73 21q-19 0 -32 -10t-13 -26q0 -18 19 -37q14 -14 66.5 -53
t72.5 -68t20 -69zM425 739l-157 -194h-80l-157 194h77l119 -100l120 100h78z" />
    <glyph glyph-name="Ydieresis" unicode="&#x178;" horiz-adv-x="638" 
d="M538 828q0 -33 -22.5 -55.5t-54.5 -22.5q-33 0 -55.5 22.5t-22.5 54.5q0 33 22.5 56t56.5 23q31 0 53.5 -23t22.5 -55zM284 828q0 -33 -22.5 -55.5t-55.5 -22.5q-32 0 -55 22.5t-23 55.5t22.5 56t56.5 23q32 0 54.5 -23.5t22.5 -55.5zM642 692l-217 -420v-272h-210v272
l-203 410l224 28l108 -277l128 277z" />
    <glyph glyph-name="Zcaron" unicode="&#x17d;" horiz-adv-x="621" 
d="M609 0h-596v71l320 496h-246v133h505v-70l-312 -497h329v-133zM533 942l-157 -194h-80l-157 194h77l119 -100l120 100h78z" />
    <glyph glyph-name="zcaron" unicode="&#x17e;" horiz-adv-x="508" 
d="M494 0h-480v53l239 338h-189v109h416v-62l-218 -324h232v-114zM476 739l-157 -194h-80l-157 194h77l119 -100l120 100h78z" />
    <glyph glyph-name="florin" unicode="&#x192;" 
d="M646 710l-47 -96q-33 11 -62 11q-64 0 -80 -72l-16 -72h120l-18 -92h-121l-83 -395q-13 -60 -31.5 -92.5t-56.5 -61.5q-69 -52 -174 -52q-77 0 -132 23l47 98q33 -13 65 -13q44 0 65 37q10 17 22 77l79 379h-79l19 92h79l14 65q19 87 89.5 137t173.5 50q66 0 127 -23z
" />
    <glyph glyph-name="circumflex" unicode="&#x2c6;" horiz-adv-x="532" 
d="M460 545h-78l-120 99l-119 -99h-77l157 194h80z" />
    <glyph glyph-name="caron" unicode="&#x2c7;" horiz-adv-x="532" 
d="M460 739l-157 -194h-80l-157 194h77l119 -100l120 100h78z" />
    <glyph glyph-name="breve" unicode="&#x2d8;" horiz-adv-x="532" 
d="M469 736q-8 -90 -61.5 -141.5t-145.5 -51.5q-186 0 -207 193h67q14 -41 52 -65.5t88 -24.5t88.5 24.5t51.5 65.5h67z" />
    <glyph glyph-name="dotaccent" unicode="&#x2d9;" horiz-adv-x="532" 
d="M343 658q0 -34 -24 -57.5t-58 -23.5t-57.5 23.5t-23.5 57.5q0 35 24.5 59t58.5 24q33 0 56.5 -24.5t23.5 -58.5z" />
    <glyph glyph-name="ring" unicode="&#x2da;" horiz-adv-x="532" 
d="M385 662q0 -50 -36 -85.5t-87 -35.5q-50 0 -86.5 35.5t-36.5 85.5q0 52 36 87.5t89 35.5q50 0 85.5 -36t35.5 -87zM310 662q0 21 -14.5 36t-34.5 15q-19 0 -33 -15.5t-14 -35.5t14 -34.5t34 -14.5t34 14.5t14 34.5z" />
    <glyph glyph-name="ogonek" unicode="&#x2db;" horiz-adv-x="532" 
d="M397 -216q-73 -29 -136 -29q-124 0 -124 101q0 76 103 144h97q-97 -43 -97 -123q0 -53 63 -53q32 0 75 13z" />
    <glyph glyph-name="tilde" unicode="&#x2dc;" horiz-adv-x="532" 
d="M468 724q-6 -41 -21 -74q-38 -83 -112 -83q-31 0 -92 31q-43 22 -65 22q-45 0 -65 -53h-58q12 53 24 78q35 75 106 75q28 0 78 -26.5t76 -26.5q53 0 73 57h56z" />
    <glyph glyph-name="hungarumlaut" unicode="&#x2dd;" horiz-adv-x="532" 
d="M628 705l-264 -160h-76l239 235zM378 705l-265 -160h-76l240 235z" />
    <glyph glyph-name="Delta" unicode="&#x394;" horiz-adv-x="612" 
d="M595 0h-574l276 672h22zM471 32l-198 491l-201 -491h399z" />
    <glyph glyph-name="Delta" unicode="&#x2206;" horiz-adv-x="612" 
d="M595 0h-574l276 672h22zM471 32l-198 491l-201 -491h399z" />
    <glyph glyph-name="Omega" unicode="&#x3a9;" horiz-adv-x="768" 
d="M718 408q0 -108 -72 -177q-65 -61 -176 -82v-59h123q50 0 67 17.5t21 68.5h23l-10 -176h-252v170q80 16 122 88q36 63 36 150q0 103 -56 170q-59 71 -160 71q-102 0 -161 -71q-55 -66 -55 -170q0 -88 36 -150q41 -72 122 -88v-170h-252l-10 176h23q3 -50 21 -68t67 -18
h123v59q-112 21 -176 82q-72 69 -72 177q0 131 105 204q91 63 229 63t229 -63q105 -73 105 -204z" />
    <glyph glyph-name="Omega" unicode="&#x2126;" horiz-adv-x="768" 
d="M718 408q0 -108 -72 -177q-65 -61 -176 -82v-59h123q50 0 67 17.5t21 68.5h23l-10 -176h-252v170q80 16 122 88q36 63 36 150q0 103 -56 170q-59 71 -160 71q-102 0 -161 -71q-55 -66 -55 -170q0 -88 36 -150q41 -72 122 -88v-170h-252l-10 176h23q3 -50 21 -68t67 -18
h123v59q-112 21 -176 82q-72 69 -72 177q0 131 105 204q91 63 229 63t229 -63q105 -73 105 -204z" />
    <glyph glyph-name="mu" unicode="&#x3bc;" horiz-adv-x="667" 
d="M608 0h-199v57q-10 -38 -25.5 -52.5t-47.5 -14.5q-53 0 -72 67v-238h-199v681h199v-267q0 -57 16 -80t55 -23q40 0 57 23.5t17 77.5v269h199v-500z" />
    <glyph glyph-name="pi" unicode="&#x3c0;" horiz-adv-x="549" 
d="M526 469q0 -51 -23 -70.5t-75 -20.5h-24q-4 -132 -4 -196v-86q6 -63 39 -63q39 0 51 43q7 24 7 75h25q0 -161 -106 -161q-66 0 -87 53q-16 40 -16 151q0 -6 4 184h-137q0 -227 -13 -294q-18 -94 -80 -94q-46 0 -61 48q-9 28 -9 86h24q1 -52 37 -52q45 0 62 75
q14 62 16 231h-22q-77 0 -87 -52h-23q4 74 46 101q34 22 113 22h254q66 0 66 22v1h23v-3z" />
    <glyph glyph-name="endash" unicode="&#x2013;" 
d="M658 203h-658v106h658v-106z" />
    <glyph glyph-name="emdash" unicode="&#x2014;" horiz-adv-x="974" 
d="M923 203h-886v106h886v-106z" />
    <glyph glyph-name="quoteleft" unicode="&#x2018;" horiz-adv-x="342" 
d="M300 700l-99 -173q0 -8 11.5 -32t11.5 -46q0 -35 -27 -59.5t-65 -24.5q-48 0 -75 29q-22 23 -22 56q0 36 50 101l147 192z" />
    <glyph glyph-name="quoteright" unicode="&#x2019;" horiz-adv-x="346" 
d="M293 661q0 -36 -50 -101l-147 -192l-68 42l99 174q0 8 -11.5 32t-11.5 46q0 35 27 59.5t65 24.5q48 0 75 -29q22 -23 22 -56z" />
    <glyph glyph-name="quotesinglbase" unicode="&#x201a;" horiz-adv-x="345" 
d="M268 94q0 -36 -50 -101l-147 -192l-68 42l99 174q0 8 -11.5 32t-11.5 46q0 35 27 59.5t65 24.5q48 0 75 -29q22 -23 22 -56z" />
    <glyph glyph-name="quotedblleft" unicode="&#x201c;" horiz-adv-x="566" 
d="M524 700l-99 -174q0 -8 11.5 -32t11.5 -46q0 -35 -27 -59.5t-65 -24.5q-48 0 -75 29q-22 23 -22 56q0 36 50 101l147 192zM283 700l-99 -174q0 -8 11.5 -32t11.5 -46q0 -35 -27 -59.5t-65 -24.5q-48 0 -74 29q-22 23 -22 56q0 37 49 101l147 192z" />
    <glyph glyph-name="quotedblright" unicode="&#x201d;" horiz-adv-x="534" 
d="M510 661q0 -36 -50 -101l-147 -192l-68 42l99 174q0 8 -11.5 32t-11.5 46q0 35 27 59.5t65 24.5q48 0 75 -29q22 -23 22 -56zM269 661q0 -37 -49 -101l-147 -192l-68 42l99 174q0 8 -11.5 32t-11.5 46q0 35 27 59.5t65 24.5q48 0 74 -29q22 -23 22 -56z" />
    <glyph glyph-name="quotedblbase" unicode="&#x201e;" horiz-adv-x="568" 
d="M499 95q0 -37 -49 -101l-148 -192l-67 42l98 174q0 8 -11.5 32t-11.5 46q0 35 27 59.5t65 24.5q48 0 75 -29q22 -23 22 -56zM256 95q0 -37 -49 -101l-147 -192l-68 42l99 174q0 8 -11.5 32t-11.5 46q0 35 27 59.5t65 24.5q48 0 74 -29q22 -23 22 -56z" />
    <glyph glyph-name="dagger" unicode="&#x2020;" 
d="M582 393h-82l-126 32l50 -161l-54 -435h-79l-54 435l50 161l-127 -32h-83v140h83l127 -30l-44 104v104h175v-104l-44 -104l126 30h82v-140z" />
    <glyph glyph-name="daggerdbl" unicode="&#x2021;" 
d="M582 7h-82l-126 31l44 -104v-105h-175v105l44 104l-127 -31h-83v140h83l127 -31l-50 154l50 155l-127 -32h-83v140h83l127 -30l-44 104v104h175v-104l-44 -104l126 30h82v-140h-82l-126 32l50 -155l-50 -154l126 31h82v-140z" />
    <glyph glyph-name="bullet" unicode="&#x2022;" horiz-adv-x="451" 
d="M371 356q0 -60 -42.5 -103t-102.5 -43t-103 43t-43 103q0 61 43.5 103t104.5 42q58 0 100.5 -43t42.5 -102z" />
    <glyph glyph-name="ellipsis" unicode="&#x2026;" horiz-adv-x="975" 
d="M893 84q0 -40 -26 -66t-66 -26t-67 25.5t-27 63.5q0 43 26.5 70t69.5 27q38 0 64 -27t26 -67zM573 84q0 -40 -26 -66t-66 -26t-67 25.5t-27 63.5q0 43 26.5 70t69.5 27q38 0 64 -27t26 -67zM253 84q0 -40 -26 -66t-66 -26t-67 25.5t-27 63.5q0 43 26.5 70t69.5 27
q38 0 64 -27t26 -67z" />
    <glyph glyph-name="perthousand" unicode="&#x2030;" horiz-adv-x="1510" 
d="M1466 212q0 -97 -57.5 -158t-148.5 -61q-90 0 -148 61t-58 156q0 96 57.5 156t150.5 60q90 0 147 -60t57 -154zM996 212q0 -97 -58 -158t-149 -61q-90 0 -148 61t-58 156q0 96 57.5 156t150.5 60q90 0 147.5 -60t57.5 -154zM739 699l-364 -699h-99l364 699h99zM432 492
q0 -96 -57.5 -158t-147.5 -62q-91 0 -149.5 61.5t-58.5 156.5q0 97 58 156t152 59q89 0 146 -59.5t57 -153.5zM1312 211q0 127 -53 127q-51 0 -51 -126t52 -126t52 125zM841 211q0 127 -53 127q-50 0 -50 -126t51 -126q52 0 52 125zM277 491q0 127 -52 127q-51 0 -51 -126
t52 -126q51 0 51 125z" />
    <glyph glyph-name="guilsinglleft" unicode="&#x2039;" horiz-adv-x="248" 
d="M251 88l-76 -33l-196 177l181 183l78 -28l-100 -150z" />
    <glyph glyph-name="guilsinglright" unicode="&#x203a;" horiz-adv-x="248" 
d="M265 238l-181 -183l-78 27l101 152l-114 147l76 34z" />
    <glyph glyph-name="fraction" unicode="&#x2044;" horiz-adv-x="134" 
d="M297 699l-364 -699h-99l363 699h100z" />
    <glyph glyph-name="trademark" unicode="&#x2122;" horiz-adv-x="523" 
d="M479 500h-48v101q0 8 1 41q-5 -15 -15 -42l-40 -100h-33l-40 100q-7 19 -14 42v-142h-48v200h72l49 -130l47 130h69v-200zM212 659h-65v-159h-49v159h-64v41h178v-41z" />
    <glyph glyph-name="partialdiff" unicode="&#x2202;" horiz-adv-x="494" 
d="M436 367q0 -130 -47 -238q-61 -142 -175 -142q-74 0 -116 59q-36 51 -36 129q0 79 49 140q52 65 129 65q87 0 118 -93q12 45 12 148q0 167 -63 167q-17 0 -50 -35t-56 -35q-37 0 -37 32q0 34 36 54q30 17 66 17q93 0 137 -93q33 -71 33 -175zM341 224q0 125 -85 125
q-65 0 -97 -84q-23 -60 -23 -137q0 -119 84 -119q63 0 96 81q25 61 25 134z" />
    <glyph glyph-name="product" unicode="&#x220f;" horiz-adv-x="823" 
d="M797 -216h-264v32h84v896h-407v-896h84v-32h-264v32h88v896h-88v32h767v-32h-88v-896h88v-32z" />
    <glyph glyph-name="summation" unicode="&#x2211;" horiz-adv-x="713" 
d="M661 20q-10 -43 -53 -236h-572l398 436l-384 524h550l33 -230h-34q-33 108 -92.5 153t-171.5 45h-142l325 -446l-359 -394h212q109 0 158 25q61 30 97 123h35z" />
    <glyph glyph-name="radical" unicode="&#x221a;" horiz-adv-x="549" 
d="M594 764h-57l-290 -784h-32l-156 431l-61 -22l-12 39l138 48l125 -346l252 681h93v-47z" />
    <glyph glyph-name="infinity" unicode="&#x221e;" horiz-adv-x="713" 
d="M659 300q0 -75 -34 -127q-40 -59 -111 -59q-93 0 -148 124q-65 -124 -157 -124q-71 0 -115 58q-41 53 -41 126q0 75 35 127q39 59 111 59q91 0 148 -124q63 124 157 124q71 0 115 -58q40 -53 40 -126zM635 303q0 54 -29 88.5t-81 34.5q-77 0 -149 -162q46 -86 142 -86
q53 0 85 36t32 89zM336 334q-47 86 -141 86q-53 0 -85 -36t-32 -89q0 -51 28 -87t78 -36q51 0 95 59q23 32 57 103z" />
    <glyph glyph-name="integral" unicode="&#x222b;" horiz-adv-x="274" 
d="M364 690q0 -48 -49 -48q-26 0 -43.5 37t-29.5 37q-38 0 -48 -109q-3 -31 -12 -309q-9 -272 -47 -362q-50 -117 -144 -117q-33 0 -57 17.5t-24 49.5q0 47 49 47q26 0 44 -36.5t30 -36.5q36 0 47 109q6 58 9 220q4 169 11 250q11 135 39 201q49 117 144 117q33 0 57 -17.5
t24 -49.5z" />
    <glyph glyph-name="approxequal" unicode="&#x2248;" horiz-adv-x="549" 
d="M531 297q-81 -54 -146 -54q-34 0 -105.5 23.5t-109.5 23.5q-60 0 -152 -65v69q86 56 157 56q38 0 84 -14q29 -10 88 -28q21 -5 43 -5q54 0 141 63v-69zM531 178q-79 -54 -146 -54q-32 0 -105.5 23.5t-114.5 23.5q-55 0 -147 -65v69q89 57 158 57q35 0 84 -15l81 -25
q26 -8 49 -8q53 0 141 64v-70z" />
    <glyph glyph-name="approxequal" unicode="&#x22f2;" horiz-adv-x="549" 
d="M531 297q-81 -54 -146 -54q-34 0 -105.5 23.5t-109.5 23.5q-60 0 -152 -65v69q86 56 157 56q38 0 84 -14q29 -10 88 -28q21 -5 43 -5q54 0 141 63v-69zM531 178q-79 -54 -146 -54q-32 0 -105.5 23.5t-114.5 23.5q-55 0 -147 -65v69q89 57 158 57q35 0 84 -15l81 -25
q26 -8 49 -8q53 0 141 64v-70z" />
    <glyph glyph-name="notequal" unicode="&#x2260;" horiz-adv-x="549" 
d="M501 139h-279l-117 -117l-39 40l77 77h-95v58h148l79 78h-227v58h279l117 117l40 -40l-78 -77h95v-58h-147l-79 -78h226v-58z" />
    <glyph glyph-name="lessequal" unicode="&#x2264;" horiz-adv-x="549" 
d="M503 127l-456 143v61l456 143v-64l-351 -110l351 -109v-64zM503 0h-457v62h457v-62z" />
    <glyph glyph-name="greaterequal" unicode="&#x2265;" horiz-adv-x="549" 
d="M503 270l-457 -143v64l351 109l-351 110v64l457 -143v-61zM503 0h-457v62h457v-62z" />
    <glyph glyph-name="lozenge" unicode="&#x25ca;" horiz-adv-x="494" 
d="M491 289l-244 -522l-244 522l244 518zM435 289l-188 399l-188 -399l188 -403z" />
    <glyph glyph-name="apple" unicode="&#xf000;" horiz-adv-x="790" 
d="M566 808q0 -52 -2 -62q-8 -42 -34 -68q-30 -30 -68 -53q-7 -4 -56 -9q-3 30 6 52.5t34 67.5q28 35 54 48q38 19 66 24zM733 213q-61 -131 -109 -174q-14 -12 -27 -24q-17 -11 -47 -16q-8 -1 -17 -1q-29 0 -55 12q-43 20 -69 20q-25 0 -69 -20q-27 -13 -53 -13q-9 0 -18 2
q-37 7 -63 30q-60 54 -109 160q-41 89 -41 190q0 23 3 41q20 108 86 160q51 40 132 40q27 0 69 -16t63 -16q22 0 47 11q36 14 42 16q18 5 44 5q81 0 132 -40q14 -11 38 -38q-47 -34 -67 -68q-27 -46 -26 -100q1 -56 33 -98q23 -31 43 -44q19 -9 38 -19z" />
    <glyph glyph-name="fi" unicode="&#xf001;" horiz-adv-x="745" 
d="M669 647q0 -45 -30 -75t-74 -30t-75 29.5t-31 71.5q0 49 29.5 78.5t77.5 29.5q44 0 73.5 -30t29.5 -74zM664 0h-199v500h199v-500zM439 710l-27 -97q-33 13 -57 13q-60 0 -60 -73v-53h120v-93h-120v-407h-199v407h-81v93h81v47q0 91 62 141q57 46 150 46q70 0 131 -24z
" />
    <glyph glyph-name="fl" unicode="&#xf002;" horiz-adv-x="745" 
d="M664 0h-199v734h199v-734zM439 710l-27 -97q-32 13 -57 13q-37 0 -51 -22q-9 -18 -9 -51v-53h120v-93h-120v-407h-199v407h-81v93h81v47q0 91 62 141q57 46 150 46q70 0 131 -24z" />
    <glyph glyph-name="glyph217" horiz-adv-x="1000" 
 />
    <glyph glyph-name="glyph218" horiz-adv-x="1000" 
 />
    <glyph glyph-name="glyph219" horiz-adv-x="1000" 
 />
    <glyph glyph-name="glyph220" horiz-adv-x="1000" 
 />
    <glyph glyph-name="glyph221" horiz-adv-x="1000" 
 />
    <glyph glyph-name="glyph222" horiz-adv-x="1000" 
 />
    <glyph glyph-name="glyph223" horiz-adv-x="1000" 
 />
    <glyph glyph-name="glyph224" horiz-adv-x="1000" 
 />
    <glyph glyph-name="glyph225" horiz-adv-x="1000" 
 />
    <glyph glyph-name="HT" horiz-adv-x="266" 
 />
    <glyph glyph-name="nonmarkingreturn" horiz-adv-x="266" 
 />
    <glyph glyph-name="glyph259" horiz-adv-x="266" 
 />
    </font>
</defs>
</svg>
